<svg xmlns="http://www.w3.org/2000/svg" xmlns:xlink="http://www.w3.org/1999/xlink" id="body_2" preserveAspectRatio="xMinYMin meet" viewBox="0 0 793 1121"><defs><clipPath id="1"><path d="M0 841L0 -0.9199829L0 -0.9199829L595.32 -0.9199829L595.32 -0.9199829L595.32 841L595.32 841L0 841z" /></clipPath><clipPath id="2"><path d="M85.351 142.15L475.171 142.15L475.171 142.15L475.171 118.15L475.171 118.15L85.351 118.15z" /></clipPath><clipPath id="3"><path d="M85.344 142.14L475.174 142.14L475.174 142.14L475.174 118.14L475.174 118.14L85.344 118.14z" /></clipPath><clipPath id="4"><path d="M85.344 142.14L475.174 142.14L475.174 142.14L475.174 118.14L475.174 118.14L85.344 118.14z" /></clipPath><clipPath id="5"><path d="M85.344 142.14L475.174 142.14L475.174 142.14L475.174 118.14L475.174 118.14L85.344 118.14z" /></clipPath><clipPath id="6"><path d="M85.344 142.14L475.174 142.14L475.174 142.14L475.174 118.14L475.174 118.14L85.344 118.14z" /></clipPath><clipPath id="7"><path d="M85.344 142.14L475.174 142.14L475.174 142.14L475.174 118.14L475.174 118.14L85.344 118.14z" /></clipPath><clipPath id="8"><path d="M475.17 142.15L510.09 142.15L510.09 142.15L510.09 118.15L510.09 118.15L475.17 118.15z" /></clipPath><clipPath id="9"><path d="M475.18 142.14L510.1 142.14L510.1 142.14L510.1 118.14L510.1 118.14L475.18 118.14z" /></clipPath><clipPath id="10"><path d="M475.18 142.14L510.1 142.14L510.1 142.14L510.1 118.14L510.1 118.14L475.18 118.14z" /></clipPath><clipPath id="11"><path d="M475.18 142.14L510.1 142.14L510.1 142.14L510.1 118.14L510.1 118.14L475.18 118.14z" /></clipPath><clipPath id="12"><path d="M85.351 166.15L475.171 166.15L475.171 166.15L475.171 142.15L475.171 142.15L85.351 142.15z" /></clipPath><clipPath id="13"><path d="M85.344 166.14L475.174 166.14L475.174 166.14L475.174 142.14L475.174 142.14L85.344 142.14z" /></clipPath><clipPath id="14"><path d="M85.344 166.14L475.174 166.14L475.174 166.14L475.174 142.14L475.174 142.14L85.344 142.14z" /></clipPath><clipPath id="15"><path d="M85.344 166.14L475.174 166.14L475.174 166.14L475.174 142.14L475.174 142.14L85.344 142.14z" /></clipPath><clipPath id="16"><path d="M85.344 166.14L475.174 166.14L475.174 166.14L475.174 142.14L475.174 142.14L85.344 142.14z" /></clipPath><clipPath id="17"><path d="M475.17 166.15L510.09 166.15L510.09 166.15L510.09 142.15L510.09 142.15L475.17 142.15z" /></clipPath><clipPath id="18"><path d="M475.18 166.14L510.1 166.14L510.1 166.14L510.1 142.14L510.1 142.14L475.18 142.14z" /></clipPath><clipPath id="19"><path d="M475.18 166.14L510.1 166.14L510.1 166.14L510.1 142.14L510.1 142.14L475.18 142.14z" /></clipPath><clipPath id="20"><path d="M475.18 166.14L510.1 166.14L510.1 166.14L510.1 142.14L510.1 142.14L475.18 142.14z" /></clipPath><clipPath id="21"><path d="M85.351 176.23L475.171 176.23L475.171 176.23L475.171 166.15L475.171 166.15L85.351 166.15z" /></clipPath><clipPath id="22"><path d="M85.344 176.22L475.174 176.22L475.174 176.22L475.174 166.14L475.174 166.14L85.344 166.14z" /></clipPath><clipPath id="23"><path d="M475.17 176.23L510.09 176.23L510.09 176.23L510.09 166.15L510.09 166.15L475.17 166.15z" /></clipPath><clipPath id="24"><path d="M475.18 176.22L510.1 176.22L510.1 176.22L510.1 166.14L510.1 166.14L475.18 166.14z" /></clipPath><clipPath id="25"><path d="M85.351 200.23L239.451 200.23L239.451 200.23L239.451 176.23L239.451 176.23L85.351 176.23z" /></clipPath><clipPath id="26"><path d="M85.344 200.22L239.444 200.22L239.444 200.22L239.444 176.22L239.444 176.22L85.344 176.22z" /></clipPath><clipPath id="27"><path d="M85.344 200.22L239.444 200.22L239.444 200.22L239.444 176.22L239.444 176.22L85.344 176.22z" /></clipPath><clipPath id="28"><path d="M85.344 200.22L239.444 200.22L239.444 200.22L239.444 176.22L239.444 176.22L85.344 176.22z" /></clipPath><clipPath id="29"><path d="M85.344 200.22L239.444 200.22L239.444 200.22L239.444 176.22L239.444 176.22L85.344 176.22z" /></clipPath><clipPath id="30"><path d="M239.45 200.23L274.25 200.23L274.25 200.23L274.25 176.23L274.25 176.23L239.45 176.23z" /></clipPath><clipPath id="31"><path d="M239.45 200.22L274.25 200.22L274.25 200.22L274.25 176.22L274.25 176.22L239.45 176.22z" /></clipPath><clipPath id="32"><path d="M239.45 200.22L274.25 200.22L274.25 200.22L274.25 176.22L274.25 176.22L239.45 176.22z" /></clipPath><clipPath id="33"><path d="M274.25 200.23L323.21 200.23L323.21 200.23L323.21 176.23L323.21 176.23L274.25 176.23z" /></clipPath><clipPath id="34"><path d="M274.25 200.22L323.21 200.22L323.21 200.22L323.21 176.22L323.21 176.22L274.25 176.22z" /></clipPath><clipPath id="35"><path d="M323.21 200.23L475.18 200.23L475.18 200.23L475.18 176.23L475.18 176.23L323.21 176.23z" /></clipPath><clipPath id="36"><path d="M323.21 200.22L475.18 200.22L475.18 200.22L475.18 176.22L475.18 176.22L323.21 176.22z" /></clipPath><clipPath id="37"><path d="M323.21 200.22L475.18 200.22L475.18 200.22L475.18 176.22L475.18 176.22L323.21 176.22z" /></clipPath><clipPath id="38"><path d="M323.21 200.22L475.18 200.22L475.18 200.22L475.18 176.22L475.18 176.22L323.21 176.22z" /></clipPath><clipPath id="39"><path d="M323.21 200.22L475.18 200.22L475.18 200.22L475.18 176.22L475.18 176.22L323.21 176.22z" /></clipPath><clipPath id="40"><path d="M475.17 200.23L510.09 200.23L510.09 200.23L510.09 176.23L510.09 176.23L475.17 176.23z" /></clipPath><clipPath id="41"><path d="M475.18 200.22L510.1 200.22L510.1 200.22L510.1 176.22L510.1 176.22L475.18 176.22z" /></clipPath><clipPath id="42"><path d="M475.18 200.22L510.1 200.22L510.1 200.22L510.1 176.22L510.1 176.22L475.18 176.22z" /></clipPath><clipPath id="43"><path d="M85.351 224.23L239.451 224.23L239.451 224.23L239.451 200.23L239.451 200.23L85.351 200.23z" /></clipPath><clipPath id="44"><path d="M85.344 224.22L239.444 224.22L239.444 224.22L239.444 200.22L239.444 200.22L85.344 200.22z" /></clipPath><clipPath id="45"><path d="M85.344 224.22L239.444 224.22L239.444 224.22L239.444 200.22L239.444 200.22L85.344 200.22z" /></clipPath><clipPath id="46"><path d="M85.344 224.22L239.444 224.22L239.444 224.22L239.444 200.22L239.444 200.22L85.344 200.22z" /></clipPath><clipPath id="47"><path d="M85.344 224.22L239.444 224.22L239.444 224.22L239.444 200.22L239.444 200.22L85.344 200.22z" /></clipPath><clipPath id="48"><path d="M239.45 224.23L274.25 224.23L274.25 224.23L274.25 200.23L274.25 200.23L239.45 200.23z" /></clipPath><clipPath id="49"><path d="M239.45 224.22L274.25 224.22L274.25 224.22L274.25 200.22L274.25 200.22L239.45 200.22z" /></clipPath><clipPath id="50"><path d="M239.45 224.22L274.25 224.22L274.25 224.22L274.25 200.22L274.25 200.22L239.45 200.22z" /></clipPath><clipPath id="51"><path d="M274.25 224.23L323.21 224.23L323.21 224.23L323.21 200.23L323.21 200.23L274.25 200.23z" /></clipPath><clipPath id="52"><path d="M274.25 224.22L323.21 224.22L323.21 224.22L323.21 200.22L323.21 200.22L274.25 200.22z" /></clipPath><clipPath id="53"><path d="M323.21 224.23L475.18 224.23L475.18 224.23L475.18 200.23L475.18 200.23L323.21 200.23z" /></clipPath><clipPath id="54"><path d="M323.21 224.22L475.18 224.22L475.18 224.22L475.18 200.22L475.18 200.22L323.21 200.22z" /></clipPath><clipPath id="55"><path d="M323.21 224.22L475.18 224.22L475.18 224.22L475.18 200.22L475.18 200.22L323.21 200.22z" /></clipPath><clipPath id="56"><path d="M323.21 224.22L475.18 224.22L475.18 224.22L475.18 200.22L475.18 200.22L323.21 200.22z" /></clipPath><clipPath id="57"><path d="M323.21 224.22L475.18 224.22L475.18 224.22L475.18 200.22L475.18 200.22L323.21 200.22z" /></clipPath><clipPath id="58"><path d="M475.17 224.23L510.09 224.23L510.09 224.23L510.09 200.23L510.09 200.23L475.17 200.23z" /></clipPath><clipPath id="59"><path d="M475.18 224.22L510.1 224.22L510.1 224.22L510.1 200.22L510.1 200.22L475.18 200.22z" /></clipPath><clipPath id="60"><path d="M475.18 224.22L510.1 224.22L510.1 224.22L510.1 200.22L510.1 200.22L475.18 200.22z" /></clipPath><clipPath id="61"><path d="M85.351 248.23L239.451 248.23L239.451 248.23L239.451 224.23L239.451 224.23L85.351 224.23z" /></clipPath><clipPath id="62"><path d="M85.344 248.22L239.444 248.22L239.444 248.22L239.444 224.22L239.444 224.22L85.344 224.22z" /></clipPath><clipPath id="63"><path d="M85.344 248.22L239.444 248.22L239.444 248.22L239.444 224.22L239.444 224.22L85.344 224.22z" /></clipPath><clipPath id="64"><path d="M85.344 248.22L239.444 248.22L239.444 248.22L239.444 224.22L239.444 224.22L85.344 224.22z" /></clipPath><clipPath id="65"><path d="M85.344 248.22L239.444 248.22L239.444 248.22L239.444 224.22L239.444 224.22L85.344 224.22z" /></clipPath><clipPath id="66"><path d="M239.45 248.23L274.25 248.23L274.25 248.23L274.25 224.23L274.25 224.23L239.45 224.23z" /></clipPath><clipPath id="67"><path d="M239.45 248.22L274.25 248.22L274.25 248.22L274.25 224.22L274.25 224.22L239.45 224.22z" /></clipPath><clipPath id="68"><path d="M239.45 248.22L274.25 248.22L274.25 248.22L274.25 224.22L274.25 224.22L239.45 224.22z" /></clipPath><clipPath id="69"><path d="M274.25 248.23L323.21 248.23L323.21 248.23L323.21 224.23L323.21 224.23L274.25 224.23z" /></clipPath><clipPath id="70"><path d="M274.25 248.22L323.21 248.22L323.21 248.22L323.21 224.22L323.21 224.22L274.25 224.22z" /></clipPath><clipPath id="71"><path d="M323.21 248.23L475.18 248.23L475.18 248.23L475.18 224.23L475.18 224.23L323.21 224.23z" /></clipPath><clipPath id="72"><path d="M323.21 248.22L475.18 248.22L475.18 248.22L475.18 224.22L475.18 224.22L323.21 224.22z" /></clipPath><clipPath id="73"><path d="M323.21 248.22L475.18 248.22L475.18 248.22L475.18 224.22L475.18 224.22L323.21 224.22z" /></clipPath><clipPath id="74"><path d="M323.21 248.22L475.18 248.22L475.18 248.22L475.18 224.22L475.18 224.22L323.21 224.22z" /></clipPath><clipPath id="75"><path d="M323.21 248.22L475.18 248.22L475.18 248.22L475.18 224.22L475.18 224.22L323.21 224.22z" /></clipPath><clipPath id="76"><path d="M475.17 248.23L510.09 248.23L510.09 248.23L510.09 224.23L510.09 224.23L475.17 224.23z" /></clipPath><clipPath id="77"><path d="M475.18 248.22L510.1 248.22L510.1 248.22L510.1 224.22L510.1 224.22L475.18 224.22z" /></clipPath><clipPath id="78"><path d="M475.18 248.22L510.1 248.22L510.1 248.22L510.1 224.22L510.1 224.22L475.18 224.22z" /></clipPath><clipPath id="79"><path d="M85.351 272.23L239.451 272.23L239.451 272.23L239.451 248.23L239.451 248.23L85.351 248.23z" /></clipPath><clipPath id="80"><path d="M85.344 272.22L239.444 272.22L239.444 272.22L239.444 248.22L239.444 248.22L85.344 248.22z" /></clipPath><clipPath id="81"><path d="M85.344 272.22L239.444 272.22L239.444 272.22L239.444 248.22L239.444 248.22L85.344 248.22z" /></clipPath><clipPath id="82"><path d="M85.344 272.22L239.444 272.22L239.444 272.22L239.444 248.22L239.444 248.22L85.344 248.22z" /></clipPath><clipPath id="83"><path d="M85.344 272.22L239.444 272.22L239.444 272.22L239.444 248.22L239.444 248.22L85.344 248.22z" /></clipPath><clipPath id="84"><path d="M239.45 272.23L274.25 272.23L274.25 272.23L274.25 248.23L274.25 248.23L239.45 248.23z" /></clipPath><clipPath id="85"><path d="M239.45 272.22L274.25 272.22L274.25 272.22L274.25 248.22L274.25 248.22L239.45 248.22z" /></clipPath><clipPath id="86"><path d="M239.45 272.22L274.25 272.22L274.25 272.22L274.25 248.22L274.25 248.22L239.45 248.22z" /></clipPath><clipPath id="87"><path d="M274.25 272.23L323.21 272.23L323.21 272.23L323.21 248.23L323.21 248.23L274.25 248.23z" /></clipPath><clipPath id="88"><path d="M274.25 272.22L323.21 272.22L323.21 272.22L323.21 248.22L323.21 248.22L274.25 248.22z" /></clipPath><clipPath id="89"><path d="M323.21 272.23L475.18 272.23L475.18 272.23L475.18 248.23L475.18 248.23L323.21 248.23z" /></clipPath><clipPath id="90"><path d="M323.21 272.22L475.18 272.22L475.18 272.22L475.18 248.22L475.18 248.22L323.21 248.22z" /></clipPath><clipPath id="91"><path d="M323.21 272.22L475.18 272.22L475.18 272.22L475.18 248.22L475.18 248.22L323.21 248.22z" /></clipPath><clipPath id="92"><path d="M323.21 272.22L475.18 272.22L475.18 272.22L475.18 248.22L475.18 248.22L323.21 248.22z" /></clipPath><clipPath id="93"><path d="M323.21 272.22L475.18 272.22L475.18 272.22L475.18 248.22L475.18 248.22L323.21 248.22z" /></clipPath><clipPath id="94"><path d="M475.17 272.23L510.09 272.23L510.09 272.23L510.09 248.23L510.09 248.23L475.17 248.23z" /></clipPath><clipPath id="95"><path d="M475.18 272.22L510.1 272.22L510.1 272.22L510.1 248.22L510.1 248.22L475.18 248.22z" /></clipPath><clipPath id="96"><path d="M475.18 272.22L510.1 272.22L510.1 272.22L510.1 248.22L510.1 248.22L475.18 248.22z" /></clipPath><clipPath id="97"><path d="M85.351 296.25L239.451 296.25L239.451 296.25L239.451 272.235L239.451 272.235L85.351 272.235z" /></clipPath><clipPath id="98"><path d="M85.344 296.25L239.444 296.25L239.444 296.25L239.444 272.226L239.444 272.226L85.344 272.226z" /></clipPath><clipPath id="99"><path d="M85.344 296.25L239.444 296.25L239.444 296.25L239.444 272.226L239.444 272.226L85.344 272.226z" /></clipPath><clipPath id="100"><path d="M85.344 296.25L239.444 296.25L239.444 296.25L239.444 272.226L239.444 272.226L85.344 272.226z" /></clipPath><clipPath id="101"><path d="M85.344 296.25L239.444 296.25L239.444 296.25L239.444 272.226L239.444 272.226L85.344 272.226z" /></clipPath><clipPath id="102"><path d="M239.45 296.25L274.25 296.25L274.25 296.25L274.25 272.235L274.25 272.235L239.45 272.235z" /></clipPath><clipPath id="103"><path d="M239.45 296.25L274.25 296.25L274.25 296.25L274.25 272.226L274.25 272.226L239.45 272.226z" /></clipPath><clipPath id="104"><path d="M239.45 296.25L274.25 296.25L274.25 296.25L274.25 272.226L274.25 272.226L239.45 272.226z" /></clipPath><clipPath id="105"><path d="M274.25 296.25L323.21 296.25L323.21 296.25L323.21 272.235L323.21 272.235L274.25 272.235z" /></clipPath><clipPath id="106"><path d="M274.25 296.25L323.21 296.25L323.21 296.25L323.21 272.226L323.21 272.226L274.25 272.226z" /></clipPath><clipPath id="107"><path d="M323.21 296.25L475.18 296.25L475.18 296.25L475.18 272.235L475.18 272.235L323.21 272.235z" /></clipPath><clipPath id="108"><path d="M323.21 296.25L475.18 296.25L475.18 296.25L475.18 272.226L475.18 272.226L323.21 272.226z" /></clipPath><clipPath id="109"><path d="M323.21 296.25L475.18 296.25L475.18 296.25L475.18 272.226L475.18 272.226L323.21 272.226z" /></clipPath><clipPath id="110"><path d="M323.21 296.25L475.18 296.25L475.18 296.25L475.18 272.226L475.18 272.226L323.21 272.226z" /></clipPath><clipPath id="111"><path d="M323.21 296.25L475.18 296.25L475.18 296.25L475.18 272.226L475.18 272.226L323.21 272.226z" /></clipPath><clipPath id="112"><path d="M475.17 296.25L510.09 296.25L510.09 296.25L510.09 272.235L510.09 272.235L475.17 272.235z" /></clipPath><clipPath id="113"><path d="M475.18 296.25L510.1 296.25L510.1 296.25L510.1 272.226L510.1 272.226L475.18 272.226z" /></clipPath><clipPath id="114"><path d="M475.18 296.25L510.1 296.25L510.1 296.25L510.1 272.226L510.1 272.226L475.18 272.226z" /></clipPath><clipPath id="115"><path d="M85.351 320.25L239.451 320.25L239.451 320.25L239.451 296.25L239.451 296.25L85.351 296.25z" /></clipPath><clipPath id="116"><path d="M85.344 320.25L239.444 320.25L239.444 320.25L239.444 296.25L239.444 296.25L85.344 296.25z" /></clipPath><clipPath id="117"><path d="M85.344 320.25L239.444 320.25L239.444 320.25L239.444 296.25L239.444 296.25L85.344 296.25z" /></clipPath><clipPath id="118"><path d="M85.344 320.25L239.444 320.25L239.444 320.25L239.444 296.25L239.444 296.25L85.344 296.25z" /></clipPath><clipPath id="119"><path d="M85.344 320.25L239.444 320.25L239.444 320.25L239.444 296.25L239.444 296.25L85.344 296.25z" /></clipPath><clipPath id="120"><path d="M239.45 320.25L274.25 320.25L274.25 320.25L274.25 296.25L274.25 296.25L239.45 296.25z" /></clipPath><clipPath id="121"><path d="M239.45 320.25L274.25 320.25L274.25 320.25L274.25 296.25L274.25 296.25L239.45 296.25z" /></clipPath><clipPath id="122"><path d="M239.45 320.25L274.25 320.25L274.25 320.25L274.25 296.25L274.25 296.25L239.45 296.25z" /></clipPath><clipPath id="123"><path d="M274.25 320.25L323.21 320.25L323.21 320.25L323.21 296.25L323.21 296.25L274.25 296.25z" /></clipPath><clipPath id="124"><path d="M274.25 320.25L323.21 320.25L323.21 320.25L323.21 296.25L323.21 296.25L274.25 296.25z" /></clipPath><clipPath id="125"><path d="M323.21 320.25L475.18 320.25L475.18 320.25L475.18 296.25L475.18 296.25L323.21 296.25z" /></clipPath><clipPath id="126"><path d="M323.21 320.25L475.18 320.25L475.18 320.25L475.18 296.25L475.18 296.25L323.21 296.25z" /></clipPath><clipPath id="127"><path d="M323.21 320.25L475.18 320.25L475.18 320.25L475.18 296.25L475.18 296.25L323.21 296.25z" /></clipPath><clipPath id="128"><path d="M323.21 320.25L475.18 320.25L475.18 320.25L475.18 296.25L475.18 296.25L323.21 296.25z" /></clipPath><clipPath id="129"><path d="M323.21 320.25L475.18 320.25L475.18 320.25L475.18 296.25L475.18 296.25L323.21 296.25z" /></clipPath><clipPath id="130"><path d="M475.17 320.25L510.09 320.25L510.09 320.25L510.09 296.25L510.09 296.25L475.17 296.25z" /></clipPath><clipPath id="131"><path d="M475.18 320.25L510.1 320.25L510.1 320.25L510.1 296.25L510.1 296.25L475.18 296.25z" /></clipPath><clipPath id="132"><path d="M475.18 320.25L510.1 320.25L510.1 320.25L510.1 296.25L510.1 296.25L475.18 296.25z" /></clipPath><clipPath id="133"><path d="M85.351 344.25L239.451 344.25L239.451 344.25L239.451 320.25L239.451 320.25L85.351 320.25z" /></clipPath><clipPath id="134"><path d="M85.344 344.25L239.444 344.25L239.444 344.25L239.444 320.25L239.444 320.25L85.344 320.25z" /></clipPath><clipPath id="135"><path d="M85.344 344.25L239.444 344.25L239.444 344.25L239.444 320.25L239.444 320.25L85.344 320.25z" /></clipPath><clipPath id="136"><path d="M85.344 344.25L239.444 344.25L239.444 344.25L239.444 320.25L239.444 320.25L85.344 320.25z" /></clipPath><clipPath id="137"><path d="M85.344 344.25L239.444 344.25L239.444 344.25L239.444 320.25L239.444 320.25L85.344 320.25z" /></clipPath><clipPath id="138"><path d="M239.45 344.25L274.25 344.25L274.25 344.25L274.25 320.25L274.25 320.25L239.45 320.25z" /></clipPath><clipPath id="139"><path d="M239.45 344.25L274.25 344.25L274.25 344.25L274.25 320.25L274.25 320.25L239.45 320.25z" /></clipPath><clipPath id="140"><path d="M239.45 344.25L274.25 344.25L274.25 344.25L274.25 320.25L274.25 320.25L239.45 320.25z" /></clipPath><clipPath id="141"><path d="M274.25 344.25L323.21 344.25L323.21 344.25L323.21 320.25L323.21 320.25L274.25 320.25z" /></clipPath><clipPath id="142"><path d="M274.25 344.25L323.21 344.25L323.21 344.25L323.21 320.25L323.21 320.25L274.25 320.25z" /></clipPath><clipPath id="143"><path d="M323.21 344.25L475.18 344.25L475.18 344.25L475.18 320.25L475.18 320.25L323.21 320.25z" /></clipPath><clipPath id="144"><path d="M323.21 344.25L475.18 344.25L475.18 344.25L475.18 320.25L475.18 320.25L323.21 320.25z" /></clipPath><clipPath id="145"><path d="M323.21 344.25L475.18 344.25L475.18 344.25L475.18 320.25L475.18 320.25L323.21 320.25z" /></clipPath><clipPath id="146"><path d="M323.21 344.25L475.18 344.25L475.18 344.25L475.18 320.25L475.18 320.25L323.21 320.25z" /></clipPath><clipPath id="147"><path d="M323.21 344.25L475.18 344.25L475.18 344.25L475.18 320.25L475.18 320.25L323.21 320.25z" /></clipPath><clipPath id="148"><path d="M475.17 344.25L510.09 344.25L510.09 344.25L510.09 320.25L510.09 320.25L475.17 320.25z" /></clipPath><clipPath id="149"><path d="M475.18 344.25L510.1 344.25L510.1 344.25L510.1 320.25L510.1 320.25L475.18 320.25z" /></clipPath><clipPath id="150"><path d="M475.18 344.25L510.1 344.25L510.1 344.25L510.1 320.25L510.1 320.25L475.18 320.25z" /></clipPath><clipPath id="151"><path d="M85.351 368.25L239.451 368.25L239.451 368.25L239.451 344.25L239.451 344.25L85.351 344.25z" /></clipPath><clipPath id="152"><path d="M85.344 368.25L239.444 368.25L239.444 368.25L239.444 344.25L239.444 344.25L85.344 344.25z" /></clipPath><clipPath id="153"><path d="M85.344 368.25L239.444 368.25L239.444 368.25L239.444 344.25L239.444 344.25L85.344 344.25z" /></clipPath><clipPath id="154"><path d="M85.344 368.25L239.444 368.25L239.444 368.25L239.444 344.25L239.444 344.25L85.344 344.25z" /></clipPath><clipPath id="155"><path d="M85.344 368.25L239.444 368.25L239.444 368.25L239.444 344.25L239.444 344.25L85.344 344.25z" /></clipPath><clipPath id="156"><path d="M239.45 368.25L274.25 368.25L274.25 368.25L274.25 344.25L274.25 344.25L239.45 344.25z" /></clipPath><clipPath id="157"><path d="M239.45 368.25L274.25 368.25L274.25 368.25L274.25 344.25L274.25 344.25L239.45 344.25z" /></clipPath><clipPath id="158"><path d="M239.45 368.25L274.25 368.25L274.25 368.25L274.25 344.25L274.25 344.25L239.45 344.25z" /></clipPath><clipPath id="159"><path d="M274.25 368.25L323.21 368.25L323.21 368.25L323.21 344.25L323.21 344.25L274.25 344.25z" /></clipPath><clipPath id="160"><path d="M274.25 368.25L323.21 368.25L323.21 368.25L323.21 344.25L323.21 344.25L274.25 344.25z" /></clipPath><clipPath id="161"><path d="M323.21 368.25L475.18 368.25L475.18 368.25L475.18 344.25L475.18 344.25L323.21 344.25z" /></clipPath><clipPath id="162"><path d="M323.21 368.25L475.18 368.25L475.18 368.25L475.18 344.25L475.18 344.25L323.21 344.25z" /></clipPath><clipPath id="163"><path d="M323.21 368.25L475.18 368.25L475.18 368.25L475.18 344.25L475.18 344.25L323.21 344.25z" /></clipPath><clipPath id="164"><path d="M323.21 368.25L475.18 368.25L475.18 368.25L475.18 344.25L475.18 344.25L323.21 344.25z" /></clipPath><clipPath id="165"><path d="M323.21 368.25L475.18 368.25L475.18 368.25L475.18 344.25L475.18 344.25L323.21 344.25z" /></clipPath><clipPath id="166"><path d="M475.17 368.25L510.09 368.25L510.09 368.25L510.09 344.25L510.09 344.25L475.17 344.25z" /></clipPath><clipPath id="167"><path d="M475.18 368.25L510.1 368.25L510.1 368.25L510.1 344.25L510.1 344.25L475.18 344.25z" /></clipPath><clipPath id="168"><path d="M475.18 368.25L510.1 368.25L510.1 368.25L510.1 344.25L510.1 344.25L475.18 344.25z" /></clipPath><clipPath id="169"><path d="M85.351 392.25L239.451 392.25L239.451 392.25L239.451 368.25L239.451 368.25L85.351 368.25z" /></clipPath><clipPath id="170"><path d="M85.344 392.25L239.444 392.25L239.444 392.25L239.444 368.25L239.444 368.25L85.344 368.25z" /></clipPath><clipPath id="171"><path d="M85.344 392.25L239.444 392.25L239.444 392.25L239.444 368.25L239.444 368.25L85.344 368.25z" /></clipPath><clipPath id="172"><path d="M85.344 392.25L239.444 392.25L239.444 392.25L239.444 368.25L239.444 368.25L85.344 368.25z" /></clipPath><clipPath id="173"><path d="M85.344 392.25L239.444 392.25L239.444 392.25L239.444 368.25L239.444 368.25L85.344 368.25z" /></clipPath><clipPath id="174"><path d="M239.45 392.25L274.25 392.25L274.25 392.25L274.25 368.25L274.25 368.25L239.45 368.25z" /></clipPath><clipPath id="175"><path d="M239.45 392.25L274.25 392.25L274.25 392.25L274.25 368.25L274.25 368.25L239.45 368.25z" /></clipPath><clipPath id="176"><path d="M239.45 392.25L274.25 392.25L274.25 392.25L274.25 368.25L274.25 368.25L239.45 368.25z" /></clipPath><clipPath id="177"><path d="M274.25 392.25L323.21 392.25L323.21 392.25L323.21 368.25L323.21 368.25L274.25 368.25z" /></clipPath><clipPath id="178"><path d="M274.25 392.25L323.21 392.25L323.21 392.25L323.21 368.25L323.21 368.25L274.25 368.25z" /></clipPath><clipPath id="179"><path d="M323.21 392.25L475.18 392.25L475.18 392.25L475.18 368.25L475.18 368.25L323.21 368.25z" /></clipPath><clipPath id="180"><path d="M323.21 392.25L475.18 392.25L475.18 392.25L475.18 368.25L475.18 368.25L323.21 368.25z" /></clipPath><clipPath id="181"><path d="M475.17 392.25L510.09 392.25L510.09 392.25L510.09 368.25L510.09 368.25L475.17 368.25z" /></clipPath><clipPath id="182"><path d="M475.18 392.25L510.1 392.25L510.1 392.25L510.1 368.25L510.1 368.25L475.18 368.25z" /></clipPath><clipPath id="183"><path d="M85.351 402.21L239.451 402.21L239.451 402.21L239.451 392.25L239.451 392.25L85.351 392.25z" /></clipPath><clipPath id="184"><path d="M85.344 402.21L239.444 402.21L239.444 402.21L239.444 392.25L239.444 392.25L85.344 392.25z" /></clipPath><clipPath id="185"><path d="M239.45 402.21L274.25 402.21L274.25 402.21L274.25 392.25L274.25 392.25L239.45 392.25z" /></clipPath><clipPath id="186"><path d="M239.45 402.21L274.25 402.21L274.25 402.21L274.25 392.25L274.25 392.25L239.45 392.25z" /></clipPath><clipPath id="187"><path d="M274.25 402.21L323.21 402.21L323.21 402.21L323.21 392.25L323.21 392.25L274.25 392.25z" /></clipPath><clipPath id="188"><path d="M274.25 402.21L323.21 402.21L323.21 402.21L323.21 392.25L323.21 392.25L274.25 392.25z" /></clipPath><clipPath id="189"><path d="M323.21 402.21L475.18 402.21L475.18 402.21L475.18 392.25L475.18 392.25L323.21 392.25z" /></clipPath><clipPath id="190"><path d="M323.21 402.21L475.18 402.21L475.18 402.21L475.18 392.25L475.18 392.25L323.21 392.25z" /></clipPath><clipPath id="191"><path d="M475.17 402.21L510.09 402.21L510.09 402.21L510.09 392.25L510.09 392.25L475.17 392.25z" /></clipPath><clipPath id="192"><path d="M475.18 402.21L510.1 402.21L510.1 402.21L510.1 392.25L510.1 392.25L475.18 392.25z" /></clipPath><clipPath id="193"><path d="M85.351 426.21L475.171 426.21L475.171 426.21L475.171 402.21L475.171 402.21L85.351 402.21z" /></clipPath><clipPath id="194"><path d="M85.344 426.21L475.174 426.21L475.174 426.21L475.174 402.21L475.174 402.21L85.344 402.21z" /></clipPath><clipPath id="195"><path d="M85.344 426.21L475.174 426.21L475.174 426.21L475.174 402.21L475.174 402.21L85.344 402.21z" /></clipPath><clipPath id="196"><path d="M85.344 426.21L475.174 426.21L475.174 426.21L475.174 402.21L475.174 402.21L85.344 402.21z" /></clipPath><clipPath id="197"><path d="M85.344 426.21L475.174 426.21L475.174 426.21L475.174 402.21L475.174 402.21L85.344 402.21z" /></clipPath><clipPath id="198"><path d="M85.344 426.21L475.174 426.21L475.174 426.21L475.174 402.21L475.174 402.21L85.344 402.21z" /></clipPath><clipPath id="199"><path d="M85.344 426.21L475.174 426.21L475.174 426.21L475.174 402.21L475.174 402.21L85.344 402.21z" /></clipPath><clipPath id="200"><path d="M85.344 426.21L475.174 426.21L475.174 426.21L475.174 402.21L475.174 402.21L85.344 402.21z" /></clipPath><clipPath id="201"><path d="M85.344 426.21L475.174 426.21L475.174 426.21L475.174 402.21L475.174 402.21L85.344 402.21z" /></clipPath><clipPath id="202"><path d="M85.344 426.21L475.174 426.21L475.174 426.21L475.174 402.21L475.174 402.21L85.344 402.21z" /></clipPath><clipPath id="203"><path d="M85.344 426.21L475.174 426.21L475.174 426.21L475.174 402.21L475.174 402.21L85.344 402.21z" /></clipPath><clipPath id="204"><path d="M85.344 426.21L475.174 426.21L475.174 426.21L475.174 402.21L475.174 402.21L85.344 402.21z" /></clipPath><clipPath id="205"><path d="M475.17 426.21L510.09 426.21L510.09 426.21L510.09 402.21L510.09 402.21L475.17 402.21z" /></clipPath><clipPath id="206"><path d="M475.18 426.21L510.1 426.21L510.1 426.21L510.1 402.21L510.1 402.21L475.18 402.21z" /></clipPath><clipPath id="207"><path d="M475.18 426.21L510.1 426.21L510.1 426.21L510.1 402.21L510.1 402.21L475.18 402.21z" /></clipPath><clipPath id="208"><path d="M0.00125 841.0914L595.4112 841.0914L595.4112 841.0914L595.4112 -0.9186401L595.4112 -0.9186401L0.00125 -0.9186401z" /></clipPath></defs><g transform="matrix(1.333333 0 0 1.333333 0 0)"><g><g clip-path="url(#1)"><g transform="matrix(0.12 0 0 0.12 198.62 65.45996)"><g transform="matrix(1 0 0 1 0 0)"><image x="0" y="0" xlink:href="img_04.png" width="600" height="358" /></g></g><g transform="matrix(0.12 0 0 0.12 252.65 65.45996)"><g transform="matrix(1 0 0 1 0 0)"><image x="0" y="0" xlink:href="img_05.png" width="600" height="358" /></g></g><g transform="matrix(0.12 0 0 0.12 306.65 65.45996)"><g transform="matrix(1 0 0 1 0 0)"><image x="0" y="0" xlink:href="img_06.png" width="600" height="358" /></g></g><g transform="matrix(0.12 0 0 0.12 360.67 65.45996)"><g transform="matrix(1 0 0 1 0 0)"><image x="0" y="0" xlink:href="img_07.png" width="600" height="358" /></g></g><g clip-path="url(#2)"><g clip-path="url(#3)"></g><g clip-path="url(#4)"></g><g clip-path="url(#5)"></g><g clip-path="url(#6)"></g><g clip-path="url(#7)"></g></g><g clip-path="url(#8)"><g clip-path="url(#9)"></g><g clip-path="url(#10)"></g><g clip-path="url(#11)"></g></g><g clip-path="url(#12)"><g clip-path="url(#13)"></g><g clip-path="url(#14)"></g><g clip-path="url(#15)"></g><g clip-path="url(#16)"></g></g><g clip-path="url(#17)"><g clip-path="url(#18)"></g><g clip-path="url(#19)"></g><g clip-path="url(#20)"></g></g><g clip-path="url(#21)"><g clip-path="url(#22)"></g></g><g clip-path="url(#23)"><g clip-path="url(#24)"></g></g><g clip-path="url(#25)"><g clip-path="url(#26)"></g><g clip-path="url(#27)"></g><g clip-path="url(#28)"></g><g clip-path="url(#29)"></g></g><g clip-path="url(#30)"><g clip-path="url(#31)"></g><g clip-path="url(#32)"></g></g><g clip-path="url(#33)"><g clip-path="url(#34)"></g></g><g clip-path="url(#35)"><g clip-path="url(#36)"></g><g clip-path="url(#37)"></g><g clip-path="url(#38)"></g><g clip-path="url(#39)"></g></g><g clip-path="url(#40)"><g clip-path="url(#41)"></g><g clip-path="url(#42)"></g></g><g clip-path="url(#43)"><g clip-path="url(#44)"></g><g clip-path="url(#45)"></g><g clip-path="url(#46)"></g><g clip-path="url(#47)"></g></g><g clip-path="url(#48)"><g clip-path="url(#49)"></g><g clip-path="url(#50)"></g></g><g clip-path="url(#51)"><g clip-path="url(#52)"></g></g><g clip-path="url(#53)"><g clip-path="url(#54)"></g><g clip-path="url(#55)"></g><g clip-path="url(#56)"></g><g clip-path="url(#57)"></g></g><g clip-path="url(#58)"><g clip-path="url(#59)"></g><g clip-path="url(#60)"></g></g><g clip-path="url(#61)"><g clip-path="url(#62)"></g><g clip-path="url(#63)"></g><g clip-path="url(#64)"></g><g clip-path="url(#65)"></g></g><g clip-path="url(#66)"><g clip-path="url(#67)"></g><g clip-path="url(#68)"></g></g><g clip-path="url(#69)"><g clip-path="url(#70)"></g></g><g clip-path="url(#71)"><g clip-path="url(#72)"></g><g clip-path="url(#73)"></g><g clip-path="url(#74)"></g><g clip-path="url(#75)"></g></g><g clip-path="url(#76)"><g clip-path="url(#77)"></g><g clip-path="url(#78)"></g></g><g clip-path="url(#79)"><g clip-path="url(#80)"></g><g clip-path="url(#81)"></g><g clip-path="url(#82)"></g><g clip-path="url(#83)"></g></g><g clip-path="url(#84)"><g clip-path="url(#85)"></g><g clip-path="url(#86)"></g></g><g clip-path="url(#87)"><g clip-path="url(#88)"></g></g><g clip-path="url(#89)"><g clip-path="url(#90)"></g><g clip-path="url(#91)"></g><g clip-path="url(#92)"></g><g clip-path="url(#93)"></g></g><g clip-path="url(#94)"><g clip-path="url(#95)"></g><g clip-path="url(#96)"></g></g><g clip-path="url(#97)"><g clip-path="url(#98)"></g><g clip-path="url(#99)"></g><g clip-path="url(#100)"></g><g clip-path="url(#101)"></g></g><g clip-path="url(#102)"><g clip-path="url(#103)"></g><g clip-path="url(#104)"></g></g><g clip-path="url(#105)"><g clip-path="url(#106)"></g></g><g clip-path="url(#107)"><g clip-path="url(#108)"></g><g clip-path="url(#109)"></g><g clip-path="url(#110)"></g><g clip-path="url(#111)"></g></g><g clip-path="url(#112)"><g clip-path="url(#113)"></g><g clip-path="url(#114)"></g></g><g clip-path="url(#115)"><g clip-path="url(#116)"></g><g clip-path="url(#117)"></g><g clip-path="url(#118)"></g><g clip-path="url(#119)"></g></g><g clip-path="url(#120)"><g clip-path="url(#121)"></g><g clip-path="url(#122)"></g></g><g clip-path="url(#123)"><g clip-path="url(#124)"></g></g><g clip-path="url(#125)"><g clip-path="url(#126)"></g><g clip-path="url(#127)"></g><g clip-path="url(#128)"></g><g clip-path="url(#129)"></g></g><g clip-path="url(#130)"><g clip-path="url(#131)"></g><g clip-path="url(#132)"></g></g><g clip-path="url(#133)"><g clip-path="url(#134)"></g><g clip-path="url(#135)"></g><g clip-path="url(#136)"></g><g clip-path="url(#137)"></g></g><g clip-path="url(#138)"><g clip-path="url(#139)"></g><g clip-path="url(#140)"></g></g><g clip-path="url(#141)"><g clip-path="url(#142)"></g></g><g clip-path="url(#143)"><g clip-path="url(#144)"></g><g clip-path="url(#145)"></g><g clip-path="url(#146)"></g><g clip-path="url(#147)"></g></g><g clip-path="url(#148)"><g clip-path="url(#149)"></g><g clip-path="url(#150)"></g></g><g clip-path="url(#151)"><g clip-path="url(#152)"></g><g clip-path="url(#153)"></g><g clip-path="url(#154)"></g><g clip-path="url(#155)"></g></g><g clip-path="url(#156)"><g clip-path="url(#157)"></g><g clip-path="url(#158)"></g></g><g clip-path="url(#159)"><g clip-path="url(#160)"></g></g><g clip-path="url(#161)"><g clip-path="url(#162)"></g><g clip-path="url(#163)"></g><g clip-path="url(#164)"></g><g clip-path="url(#165)"></g></g><g clip-path="url(#166)"><g clip-path="url(#167)"></g><g clip-path="url(#168)"></g></g><g clip-path="url(#169)"><g clip-path="url(#170)"></g><g clip-path="url(#171)"></g><g clip-path="url(#172)"></g><g clip-path="url(#173)"></g></g><g clip-path="url(#174)"><g clip-path="url(#175)"></g><g clip-path="url(#176)"></g></g><g clip-path="url(#177)"><g clip-path="url(#178)"></g></g><g clip-path="url(#179)"><g clip-path="url(#180)"></g></g><g clip-path="url(#181)"><g clip-path="url(#182)"></g></g><g clip-path="url(#183)"><g clip-path="url(#184)"></g></g><g clip-path="url(#185)"><g clip-path="url(#186)"></g></g><g clip-path="url(#187)"><g clip-path="url(#188)"></g></g><g clip-path="url(#189)"><g clip-path="url(#190)"></g></g><g clip-path="url(#191)"><g clip-path="url(#192)"></g></g><g clip-path="url(#193)"><g clip-path="url(#194)"></g><g clip-path="url(#195)"></g><g clip-path="url(#196)"></g><g clip-path="url(#197)"></g><g clip-path="url(#198)"></g><g clip-path="url(#199)"></g><g clip-path="url(#200)"></g><g clip-path="url(#201)"></g><g clip-path="url(#202)"></g><g clip-path="url(#203)"></g><g clip-path="url(#204)"></g></g><g clip-path="url(#205)"><g clip-path="url(#206)"></g><g clip-path="url(#207)"></g></g><g clip-path="url(#208)"><path transform="matrix(1 0 0 -1 0 841)" d="M84.024 398.71L511.534 398.71L511.534 398.71L511.534 399.19L511.534 399.19L84.024 399.19z" stroke="none" fill="#000000" fill-rule="evenodd" /></g></g></g></g></svg>