<svg xmlns="http://www.w3.org/2000/svg" xmlns:xlink="http://www.w3.org/1999/xlink" id="body_1" preserveAspectRatio="xMinYMin meet" viewBox="0 0 793 1121"><defs><clipPath id="1"><path d="M0 841L0 -0.9199829L0 -0.9199829L595.32 -0.9199829L595.32 -0.9199829L595.32 841L595.32 841L0 841z" /></clipPath><clipPath id="2"><path d="M48.481 95.34998L546.931 95.34998L546.931 95.34998L546.931 71.31995L546.931 71.31995L48.481 71.31995z" /></clipPath><clipPath id="3"><path d="M48.48 95.34003L546.94 95.34003L546.94 95.34003L546.94 71.31604L546.94 71.31604L48.48 71.31604z" /></clipPath><clipPath id="4"><path d="M48.48 95.34003L546.94 95.34003L546.94 95.34003L546.94 71.31604L546.94 71.31604L48.48 71.31604z" /></clipPath><clipPath id="5"><path d="M48.48 95.34003L546.94 95.34003L546.94 95.34003L546.94 71.31604L546.94 71.31604L48.48 71.31604z" /></clipPath><clipPath id="6"><path d="M48.481 127.15L546.931 127.15L546.931 127.15L546.931 95.35004L546.931 95.35004L48.481 95.35004z" /></clipPath><clipPath id="7"><path d="M48.48 127.14L546.94 127.14L546.94 127.14L546.94 95.34003L546.94 95.34003L48.48 95.34003z" /></clipPath><clipPath id="8"><path d="M48.48 127.14L546.94 127.14L546.94 127.14L546.94 95.34003L546.94 95.34003L48.48 95.34003z" /></clipPath><clipPath id="9"><path d="M48.48 127.14L546.94 127.14L546.94 127.14L546.94 95.34003L546.94 95.34003L48.48 95.34003z" /></clipPath><clipPath id="10"><path d="M48.48 127.14L546.94 127.14L546.94 127.14L546.94 95.34003L546.94 95.34003L48.48 95.34003z" /></clipPath><clipPath id="11"><path d="M48.48 127.14L546.94 127.14L546.94 127.14L546.94 95.34003L546.94 95.34003L48.48 95.34003z" /></clipPath><clipPath id="12"><path d="M48.48 127.14L546.94 127.14L546.94 127.14L546.94 95.34003L546.94 95.34003L48.48 95.34003z" /></clipPath><clipPath id="13"><path d="M48.48 127.14L546.94 127.14L546.94 127.14L546.94 95.34003L546.94 95.34003L48.48 95.34003z" /></clipPath><clipPath id="14"><path d="M48.48 127.14L546.94 127.14L546.94 127.14L546.94 95.34003L546.94 95.34003L48.48 95.34003z" /></clipPath><clipPath id="15"><path d="M48.48 127.14L546.94 127.14L546.94 127.14L546.94 95.34003L546.94 95.34003L48.48 95.34003z" /></clipPath><clipPath id="16"><path d="M48.481 197.95L546.931 197.95L546.931 197.95L546.931 127.75L546.931 127.75L48.481 127.75z" /></clipPath><clipPath id="17"><path d="M48.48 197.94L546.94 197.94L546.94 197.94L546.94 127.74L546.94 127.74L48.48 127.74z" /></clipPath><clipPath id="18"><path d="M48.48 197.94L546.94 197.94L546.94 197.94L546.94 127.74L546.94 127.74L48.48 127.74z" /></clipPath><clipPath id="19"><path d="M48.481 365.97L546.931 365.97L546.931 365.97L546.931 197.95L546.931 197.95L48.481 197.95z" /></clipPath><clipPath id="20"><path d="M48.48 365.97L546.94 365.97L546.94 365.97L546.94 197.95L546.94 197.95L48.48 197.95z" /></clipPath><clipPath id="21"><path d="M48.48 365.97L546.94 365.97L546.94 365.97L546.94 197.95L546.94 197.95L48.48 197.95z" /></clipPath><clipPath id="22"><path d="M48.48 365.97L546.94 365.97L546.94 365.97L546.94 197.95L546.94 197.95L48.48 197.95z" /></clipPath><clipPath id="23"><path d="M48.48 365.97L546.94 365.97L546.94 365.97L546.94 197.95L546.94 197.95L48.48 197.95z" /></clipPath><clipPath id="24"><path d="M48.48 365.97L546.94 365.97L546.94 365.97L546.94 197.95L546.94 197.95L48.48 197.95z" /></clipPath><clipPath id="25"><path d="M48.48 365.97L546.94 365.97L546.94 365.97L546.94 197.95L546.94 197.95L48.48 197.95z" /></clipPath><clipPath id="26"><path d="M48.48 365.97L546.94 365.97L546.94 365.97L546.94 197.95L546.94 197.95L48.48 197.95z" /></clipPath><clipPath id="27"><path d="M48.48 365.97L546.94 365.97L546.94 365.97L546.94 197.95L546.94 197.95L48.48 197.95z" /></clipPath><clipPath id="28"><path d="M48.48 365.97L546.94 365.97L546.94 365.97L546.94 197.95L546.94 197.95L48.48 197.95z" /></clipPath><clipPath id="29"><path d="M48.48 365.97L546.94 365.97L546.94 365.97L546.94 197.95L546.94 197.95L48.48 197.95z" /></clipPath><clipPath id="30"><path d="M48.48 365.97L546.94 365.97L546.94 365.97L546.94 197.95L546.94 197.95L48.48 197.95z" /></clipPath><clipPath id="31"><path d="M48.48 365.97L546.94 365.97L546.94 365.97L546.94 197.95L546.94 197.95L48.48 197.95z" /></clipPath><clipPath id="32"><path d="M48.48 365.97L546.94 365.97L546.94 365.97L546.94 197.95L546.94 197.95L48.48 197.95z" /></clipPath><clipPath id="33"><path d="M48.48 365.97L546.94 365.97L546.94 365.97L546.94 197.95L546.94 197.95L48.48 197.95z" /></clipPath><clipPath id="34"><path d="M48.48 365.97L546.94 365.97L546.94 365.97L546.94 197.95L546.94 197.95L48.48 197.95z" /></clipPath><clipPath id="35"><path d="M48.48 365.97L546.94 365.97L546.94 365.97L546.94 197.95L546.94 197.95L48.48 197.95z" /></clipPath><clipPath id="36"><path d="M48.48 365.97L546.94 365.97L546.94 365.97L546.94 197.95L546.94 197.95L48.48 197.95z" /></clipPath><clipPath id="37"><path d="M48.48 365.97L546.94 365.97L546.94 365.97L546.94 197.95L546.94 197.95L48.48 197.95z" /></clipPath><clipPath id="38"><path d="M48.48 365.97L546.94 365.97L546.94 365.97L546.94 197.95L546.94 197.95L48.48 197.95z" /></clipPath><clipPath id="39"><path d="M48.48 365.97L546.94 365.97L546.94 365.97L546.94 197.95L546.94 197.95L48.48 197.95z" /></clipPath><clipPath id="40"><path d="M48.48 365.97L546.94 365.97L546.94 365.97L546.94 197.95L546.94 197.95L48.48 197.95z" /></clipPath><clipPath id="41"><path d="M48.48 365.97L546.94 365.97L546.94 365.97L546.94 197.95L546.94 197.95L48.48 197.95z" /></clipPath><clipPath id="42"><path d="M48.48 365.97L546.94 365.97L546.94 365.97L546.94 197.95L546.94 197.95L48.48 197.95z" /></clipPath><clipPath id="43"><path d="M48.48 365.97L546.94 365.97L546.94 365.97L546.94 197.95L546.94 197.95L48.48 197.95z" /></clipPath><clipPath id="44"><path d="M48.48 365.97L546.94 365.97L546.94 365.97L546.94 197.95L546.94 197.95L48.48 197.95z" /></clipPath><clipPath id="45"><path d="M48.48 365.97L546.94 365.97L546.94 365.97L546.94 197.95L546.94 197.95L48.48 197.95z" /></clipPath><clipPath id="46"><path d="M48.48 365.97L546.94 365.97L546.94 365.97L546.94 197.95L546.94 197.95L48.48 197.95z" /></clipPath><clipPath id="47"><path d="M48.48 365.97L546.94 365.97L546.94 365.97L546.94 197.95L546.94 197.95L48.48 197.95z" /></clipPath><clipPath id="48"><path d="M48.48 365.97L546.94 365.97L546.94 365.97L546.94 197.95L546.94 197.95L48.48 197.95z" /></clipPath><clipPath id="49"><path d="M48.48 365.97L546.94 365.97L546.94 365.97L546.94 197.95L546.94 197.95L48.48 197.95z" /></clipPath><clipPath id="50"><path d="M48.48 365.97L546.94 365.97L546.94 365.97L546.94 197.95L546.94 197.95L48.48 197.95z" /></clipPath><clipPath id="51"><path d="M48.48 365.97L546.94 365.97L546.94 365.97L546.94 197.95L546.94 197.95L48.48 197.95z" /></clipPath><clipPath id="52"><path d="M48.48 365.97L546.94 365.97L546.94 365.97L546.94 197.95L546.94 197.95L48.48 197.95z" /></clipPath><clipPath id="53"><path d="M48.48 365.97L546.94 365.97L546.94 365.97L546.94 197.95L546.94 197.95L48.48 197.95z" /></clipPath><clipPath id="54"><path d="M48.48 365.97L546.94 365.97L546.94 365.97L546.94 197.95L546.94 197.95L48.48 197.95z" /></clipPath><clipPath id="55"><path d="M48.48 365.97L546.94 365.97L546.94 365.97L546.94 197.95L546.94 197.95L48.48 197.95z" /></clipPath><clipPath id="56"><path d="M48.48 365.97L546.94 365.97L546.94 365.97L546.94 197.95L546.94 197.95L48.48 197.95z" /></clipPath><clipPath id="57"><path d="M48.48 365.97L546.94 365.97L546.94 365.97L546.94 197.95L546.94 197.95L48.48 197.95z" /></clipPath><clipPath id="58"><path d="M48.48 365.97L546.94 365.97L546.94 365.97L546.94 197.95L546.94 197.95L48.48 197.95z" /></clipPath><clipPath id="59"><path d="M48.48 365.97L546.94 365.97L546.94 365.97L546.94 197.95L546.94 197.95L48.48 197.95z" /></clipPath><clipPath id="60"><path d="M48.48 365.97L546.94 365.97L546.94 365.97L546.94 197.95L546.94 197.95L48.48 197.95z" /></clipPath><clipPath id="61"><path d="M48.48 365.97L546.94 365.97L546.94 365.97L546.94 197.95L546.94 197.95L48.48 197.95z" /></clipPath><clipPath id="62"><path d="M48.48 365.97L546.94 365.97L546.94 365.97L546.94 197.95L546.94 197.95L48.48 197.95z" /></clipPath><clipPath id="63"><path d="M48.48 365.97L546.94 365.97L546.94 365.97L546.94 197.95L546.94 197.95L48.48 197.95z" /></clipPath><clipPath id="64"><path d="M48.48 365.97L546.94 365.97L546.94 365.97L546.94 197.95L546.94 197.95L48.48 197.95z" /></clipPath><clipPath id="65"><path d="M48.481 771.611L546.931 771.611L546.931 771.611L546.931 365.961L546.931 365.961L48.481 365.961z" /></clipPath><clipPath id="66"><path d="M48.48 771.616L546.94 771.616L546.94 771.616L546.94 365.966L546.94 365.966L48.48 365.966z" /></clipPath><clipPath id="67"><path d="M43.08 771.52L552.24 771.52L552.24 771.52L552.24 365.92L552.24 365.92L43.08 365.92z" /></clipPath><clipPath id="68"><path d="M43.08 771.52L552.24 771.52L552.24 771.52L552.24 365.92L552.24 365.92L43.08 365.92z" /></clipPath></defs><g transform="matrix(1.333333 0 0 1.333333 0 0)"><g><g clip-path="url(#1)"><g clip-path="url(#2)"><g clip-path="url(#3)"></g><g clip-path="url(#4)"></g><g clip-path="url(#5)"></g></g><g clip-path="url(#6)"><g clip-path="url(#7)"></g><g clip-path="url(#8)"></g><g clip-path="url(#9)"></g><g clip-path="url(#10)"></g><g clip-path="url(#11)"></g><g clip-path="url(#12)"></g><g clip-path="url(#13)"></g><g clip-path="url(#14)"></g><g clip-path="url(#15)"></g></g><g clip-path="url(#16)"><g clip-path="url(#17)"></g><g clip-path="url(#18)"></g></g><path transform="matrix(1 0 0 -1 0 841)" d="M48.48 713.38L546.94 713.38L546.94 713.38L546.94 713.86L546.94 713.86L48.48 713.86z" stroke="none" fill="#000000" fill-rule="evenodd" /><g clip-path="url(#19)"><g clip-path="url(#20)"></g><g clip-path="url(#21)"></g><g clip-path="url(#22)"></g><g clip-path="url(#23)"></g><g clip-path="url(#24)"></g><g clip-path="url(#25)"></g><g clip-path="url(#26)"></g><g clip-path="url(#27)"></g><g clip-path="url(#28)"></g><g clip-path="url(#29)"></g><g clip-path="url(#30)"></g><g clip-path="url(#31)"></g><g clip-path="url(#32)"></g><g clip-path="url(#33)"></g><g clip-path="url(#34)"></g><g clip-path="url(#35)"></g><g clip-path="url(#36)"></g><g clip-path="url(#37)"></g><g clip-path="url(#38)"></g><g clip-path="url(#39)"></g><g clip-path="url(#40)"></g><g clip-path="url(#41)"></g><g clip-path="url(#42)"></g><g clip-path="url(#43)"></g><g clip-path="url(#44)"></g><g clip-path="url(#45)"></g><g clip-path="url(#46)"></g><g clip-path="url(#47)"></g><g clip-path="url(#48)"></g><g clip-path="url(#49)"></g><g clip-path="url(#50)"></g><g clip-path="url(#51)"></g><g clip-path="url(#52)"></g><g clip-path="url(#53)"></g><g clip-path="url(#54)"></g><g clip-path="url(#55)"></g><g clip-path="url(#56)"></g><g clip-path="url(#57)"></g><g clip-path="url(#58)"></g><g clip-path="url(#59)"></g><g clip-path="url(#60)"></g><g clip-path="url(#61)"></g><g clip-path="url(#62)"></g><g clip-path="url(#63)"></g><g clip-path="url(#64)"></g></g><g clip-path="url(#65)"><g clip-path="url(#66)"></g></g><g clip-path="url(#67)"><g transform="matrix(0.3601544 0 0 0.3601069 158.04 366.76)"><g transform="matrix(1 0 0 1 0 0)"><image x="0" y="0" xlink:href="img_01.png" width="777" height="1123" /></g></g></g><g clip-path="url(#68)"><g transform="matrix(0.4991 0 0 0.499506 173.15 381.927)"><g transform="matrix(1 0 0 1 0 0)"><image x="0" y="0" xlink:href="img_02.png" width="500" height="749" /></g></g></g></g></g></g></svg>